<?xml version="1.0" encoding="UTF-8"?>
<svg version="1.1" xmlns="http://www.w3.org/2000/svg" width="1168" height="880">
<path d="M0 0 C385.44 0 770.88 0 1168 0 C1168 290.4 1168 580.8 1168 880 C782.56 880 397.12 880 0 880 C0 589.6 0 299.2 0 0 Z " fill="#181145" transform="translate(0,0)"/>
<path d="M0 0 C7.86790561 -0.49407464 12.51946221 1.1549372 18.97265625 5.62890625 C19.93751953 6.48355469 19.93751953 6.48355469 20.921875 7.35546875 C20.921875 8.01546875 20.921875 8.67546875 20.921875 9.35546875 C21.581875 9.35546875 22.241875 9.35546875 22.921875 9.35546875 C22.921875 6.71546875 22.921875 4.07546875 22.921875 1.35546875 C29.851875 1.35546875 36.781875 1.35546875 43.921875 1.35546875 C43.96715443 9.70952339 44.00380753 18.06348177 44.02549934 26.41762638 C44.03591307 30.29726299 44.05002796 34.17681091 44.07275391 38.05639648 C44.09456864 41.80410566 44.10646174 45.5517298 44.11162949 49.2994976 C44.11530981 50.72555313 44.12249641 52.15160428 44.13333511 53.57762337 C44.14796409 55.58303367 44.14869289 57.5885305 44.14892578 59.59399414 C44.153367 60.73316788 44.15780823 61.87234161 44.16238403 63.04603577 C43.55277694 71.43430203 40.45457051 79.2720301 34.359375 85.10546875 C25.79259532 92.11901921 15.19443905 93.52635635 4.4609375 93.453125 C3.67036957 93.45171005 2.87980164 93.4502951 2.0652771 93.44883728 C-0.44089666 93.44327379 -2.94697858 93.43072819 -5.453125 93.41796875 C-7.16015495 93.41294903 -8.86718632 93.40838695 -10.57421875 93.40429688 C-14.7422507 93.39417046 -18.91008596 93.3745882 -23.078125 93.35546875 C-23.078125 87.41546875 -23.078125 81.47546875 -23.078125 75.35546875 C-20.70496094 75.31808594 -18.33179688 75.28070312 -15.88671875 75.2421875 C-13.56981573 75.19587977 -11.25306838 75.14468002 -8.9362793 75.09301758 C-7.33513981 75.05991283 -5.73388768 75.03183654 -4.13256836 75.0090332 C-1.82096683 74.97521893 0.48961578 74.92289424 2.80078125 74.8671875 C3.50836075 74.86079758 4.21594025 74.85440765 4.94496155 74.8478241 C10.68376223 74.68081645 15.75486777 73.59237944 19.859375 69.35546875 C21.49280878 64.74342043 21.15086394 60.19816074 20.921875 55.35546875 C20.24125 55.95359375 19.560625 56.55171875 18.859375 57.16796875 C11.19762529 62.87352704 4.34209537 63.26710298 -5.078125 62.35546875 C-11.92876758 60.89729985 -16.14963996 58.17198846 -20.02734375 52.328125 C-21.25509054 50.02324719 -21.91481356 47.96845173 -22.078125 45.35546875 C-22.738125 45.35546875 -23.398125 45.35546875 -24.078125 45.35546875 C-25.17714616 40.9066311 -25.26164277 36.53614332 -25.265625 31.98046875 C-25.27787109 31.25085938 -25.29011719 30.52125 -25.30273438 29.76953125 C-25.32516253 21.39635333 -23.07096778 13.06577547 -17.578125 6.5859375 C-12.24057407 1.50785085 -7.08569784 0.81827221 0 0 Z " fill="#F4F4F6" transform="translate(691.078125,449.64453125)"/>
<path d="M0 0 C6.6 0 13.2 0 20 0 C20 30.36 20 60.72 20 92 C14.06 92 8.12 92 2 92 C1 91 1 91 0.9375 88.4375 C0.958125 87.633125 0.97875 86.82875 1 86 C0.34 86 -0.32 86 -1 86 C-1 86.66 -1 87.32 -1 88 C-6.3395163 92.78623194 -11.5457752 93.76900587 -18.5 93.5625 C-19.30308594 93.57345703 -20.10617187 93.58441406 -20.93359375 93.59570312 C-27.97512536 93.51010914 -33.27986399 91.61346401 -38.390625 86.703125 C-39.00421875 85.89359375 -39.6178125 85.0840625 -40.25 84.25 C-40.87390625 83.45078125 -41.4978125 82.6515625 -42.140625 81.828125 C-42.75421875 80.89484375 -43.3678125 79.9615625 -44 79 C-44.54938232 78.16698364 -44.54938232 78.16698364 -45.10986328 77.31713867 C-48.62480574 71.3043269 -48.53348036 65.63966695 -48.375 58.8125 C-48.37371094 57.74580078 -48.37242187 56.67910156 -48.37109375 55.58007812 C-48.31400736 50.50890353 -48.10340593 46.67049731 -46 42 C-45.608125 41.05125 -45.21625 40.1025 -44.8125 39.125 C-41.51761027 33.44415564 -36.68135087 28.40774196 -30.6328125 25.65625 C-21.75227253 23.44270295 -11.15090099 23.76153148 -3 28 C-2.01 28.66 -1.02 29.32 0 30 C0 20.1 0 10.2 0 0 Z " fill="#F6F6F7" transform="translate(521,425)"/>
<path d="M0 0 C0.72574219 0.00515625 1.45148438 0.0103125 2.19921875 0.015625 C10.77202893 0.50251888 17.95045658 6.29467888 23.6015625 12.34375 C29.25539579 19.03991009 30.34583189 25.89536839 30.3125 34.375 C30.32861328 35.18710937 30.34472656 35.99921875 30.36132812 36.8359375 C30.36590525 42.54819422 29.28162037 46.76250732 27 52 C26.34 52 25.68 52 25 52 C24.938125 52.556875 24.87625 53.11375 24.8125 53.6875 C23.21837196 58.22463364 18.94578412 61.41483109 15 64 C14.34 64 13.68 64 13 64 C13 64.66 13 65.32 13 66 C2.31158548 70.03517672 -11.71799414 71.32064833 -22.6875 67.5 C-30.82831603 63.4579572 -36.49043647 56.25699637 -40 48 C-42.91387133 39.32995479 -44.00553253 28.30631072 -40.0390625 19.76171875 C-34.94333727 11.12197409 -28.67874387 4.28385953 -19 1 C-12.7277906 -0.35282948 -6.38431622 -0.17093216 0 0 Z " fill="#F5F5F6" transform="translate(434,449)"/>
<path d="M0 0 C6.93 0 13.86 0 21 0 C21 16.5 21 33 21 50 C21.66 50 22.32 50 23 50 C23.24363281 49.44699219 23.48726563 48.89398438 23.73828125 48.32421875 C25.26406057 45.51357264 27.13276779 43.26332516 29.1875 40.8125 C29.92355469 39.93207031 30.65960938 39.05164063 31.41796875 38.14453125 C31.82700439 37.67023682 32.23604004 37.19594238 32.6574707 36.70727539 C34.09470142 34.94730387 34.09470142 34.94730387 35.44213867 32.65014648 C39.51257879 26.39442543 39.51257879 26.39442543 43.71508789 25.2800293 C46.83558259 25.11469666 49.82136113 25.21118824 52.9375 25.4375 C54.00291016 25.47810547 55.06832031 25.51871094 56.16601562 25.56054688 C58.78210872 25.66612911 61.38863412 25.81354217 64 26 C64 29 64 29 62.0625 31.0625 C61.61003906 31.48789062 61.15757812 31.91328125 60.69140625 32.3515625 C56.91687702 36.030203 53.49671166 40.05986476 50 44 C49.4534375 44.59554687 48.906875 45.19109375 48.34375 45.8046875 C45.70044159 48.77072543 44.35247976 51.00522936 44 55 C44.66 55 45.32 55 46 55 C46.556875 56.00417969 47.11375 57.00835937 47.6875 58.04296875 C52.05334003 65.88010417 56.52474007 73.61887349 61.2734375 81.23046875 C61.84320313 82.14441406 62.41296875 83.05835938 63 84 C63.56976563 84.88300781 64.13953125 85.76601563 64.7265625 86.67578125 C66 89 66 89 66 92 C58.08 92 50.16 92 42 92 C40.22625 88.803125 38.4525 85.60625 36.625 82.3125 C36.06893066 81.31387939 35.51286133 80.31525879 34.93994141 79.28637695 C34.27744385 78.08694458 34.27744385 78.08694458 33.6015625 76.86328125 C33.15119629 76.05157471 32.70083008 75.23986816 32.23681641 74.40356445 C30.9914857 71.98345376 29.96923918 69.54178029 29 67 C26.00500719 66.73639577 26.00500719 66.73639577 23.859375 68.328125 C20.94921467 72.50995203 21.32414071 76.77349379 21.25 81.75 C21.1675 85.1325 21.085 88.515 21 92 C14.07 92 7.14 92 0 92 C0 61.64 0 31.28 0 0 Z " fill="#F7F7F8" transform="translate(322,425)"/>
<path d="M0 0 C0.78632812 -0.02900391 1.57265625 -0.05800781 2.3828125 -0.08789062 C8.92276012 -0.15850468 12.99716496 1.40206865 17.95703125 5.83984375 C21.7448668 10.67167638 23.50696735 14.50570882 23.47705078 20.65356445 C23.47689972 21.6942659 23.47674866 22.73496735 23.47659302 23.8072052 C23.46627045 24.9188353 23.45594788 26.03046539 23.4453125 27.17578125 C23.4424826 28.32290085 23.43965271 29.47002045 23.43673706 30.65190125 C23.42555697 34.30970768 23.40045595 37.96726778 23.375 41.625 C23.36496741 44.10741833 23.35584205 46.58984051 23.34765625 49.07226562 C23.32562467 55.15243842 23.29110935 61.23242747 23.25 67.3125 C16.32 67.3125 9.39 67.3125 2.25 67.3125 C2.20101562 64.33863281 2.15203125 61.36476563 2.1015625 58.30078125 C2.04752428 55.41474455 1.99022792 52.5287896 1.93261719 49.64282227 C1.89437783 47.63995476 1.85951619 45.63701975 1.828125 43.6340332 C1.78236504 40.75187083 1.72438846 37.87017106 1.6640625 34.98828125 C1.65251129 34.09538895 1.64096008 33.20249664 1.62905884 32.282547 C1.49920667 26.0569994 1.49920667 26.0569994 -0.75 20.3125 C-4.78555748 17.62212835 -8.01115525 17.75449895 -12.75 18.3125 C-15.71912882 19.70230498 -17.44657028 21.00907028 -19.75 23.3125 C-20.64381345 26.03865442 -20.89203871 28.58167609 -20.95532227 31.43847656 C-20.97526749 32.23900452 -20.99521271 33.03953247 -21.01576233 33.86431885 C-21.04083107 35.14577789 -21.04083107 35.14577789 -21.06640625 36.453125 C-21.08718735 37.33530701 -21.10796844 38.21748901 -21.12937927 39.12640381 C-21.19464867 41.93835831 -21.25365447 44.75040445 -21.3125 47.5625 C-21.35570673 49.47136356 -21.39932171 51.38021793 -21.44335938 53.2890625 C-21.5510735 57.96344918 -21.65031495 62.63790761 -21.75 67.3125 C-28.68 67.3125 -35.61 67.3125 -42.75 67.3125 C-42.75 45.5325 -42.75 23.7525 -42.75 1.3125 C-35.82 1.3125 -28.89 1.3125 -21.75 1.3125 C-21.75 3.9525 -21.75 6.5925 -21.75 9.3125 C-20.76 9.3125 -19.77 9.3125 -18.75 9.3125 C-18.75 8.3225 -18.75 7.3325 -18.75 6.3125 C-17.32421875 4.9609375 -17.32421875 4.9609375 -15.4375 3.6875 C-14.82261719 3.26210938 -14.20773437 2.83671875 -13.57421875 2.3984375 C-9.27225725 -0.1624732 -4.84821282 0.05845916 0 0 Z " fill="#F7F7F8" transform="translate(631.75,449.6875)"/>
<path d="M0 0 C0.78246094 -0.02900391 1.56492187 -0.05800781 2.37109375 -0.08789062 C8.15064082 -0.15019088 12.58244326 0.99212492 17.375 4.3125 C23.46870755 11.68909336 23.65745757 18.89833402 23.5703125 28.0546875 C23.5674826 29.17819611 23.56465271 30.30170471 23.56173706 31.45925903 C23.55057303 35.03544927 23.52547501 38.6113859 23.5 42.1875 C23.48996533 44.61718387 23.48084033 47.04687169 23.47265625 49.4765625 C23.450646 55.4219722 23.4161418 61.36719315 23.375 67.3125 C16.445 67.3125 9.515 67.3125 2.375 67.3125 C2.36082031 64.19425781 2.34664062 61.07601562 2.33203125 57.86328125 C2.30140417 54.83818785 2.26231705 51.81331363 2.22241211 48.78833008 C2.19923704 46.68847422 2.18483756 44.5885022 2.17944336 42.48852539 C2.17015037 39.46687475 2.12915154 36.44704983 2.08203125 33.42578125 C2.0859639 32.48914139 2.08989655 31.55250153 2.09394836 30.58747864 C1.99160651 25.99982977 1.86777664 23.95072661 -1.01293945 20.21972656 C-4.64113425 17.57055769 -6.90041469 17.66017785 -11.25 17.88671875 C-14.63671121 18.49387586 -16.35767533 19.76175975 -18.625 22.3125 C-20.29362712 25.14673765 -20.88317142 27.25375691 -20.94384766 30.53027344 C-20.96371735 31.35082214 -20.98358704 32.17137085 -21.00405884 33.01678467 C-21.02138565 34.33105438 -21.02138565 34.33105438 -21.0390625 35.671875 C-21.05842865 36.57625305 -21.0777948 37.4806311 -21.0977478 38.41241455 C-21.15743831 41.29568099 -21.20388686 44.17898758 -21.25 47.0625 C-21.28818947 49.01954848 -21.32724177 50.97658033 -21.3671875 52.93359375 C-21.46475251 57.72647504 -21.54440441 62.51918312 -21.625 67.3125 C-28.555 67.3125 -35.485 67.3125 -42.625 67.3125 C-42.625 45.5325 -42.625 23.7525 -42.625 1.3125 C-35.695 1.3125 -28.765 1.3125 -21.625 1.3125 C-21.625 3.9525 -21.625 6.5925 -21.625 9.3125 C-20.965 9.3125 -20.305 9.3125 -19.625 9.3125 C-19.625 8.6525 -19.625 7.9925 -19.625 7.3125 C-17.7265625 5.83984375 -17.7265625 5.83984375 -15.25 4.25 C-14.43789063 3.72277344 -13.62578125 3.19554687 -12.7890625 2.65234375 C-8.53886673 0.02090485 -4.90236094 0.05882833 0 0 Z " fill="#F6F6F7" transform="translate(825.625,449.6875)"/>
<path d="M0 0 C3.20923885 1.45543712 5.72056003 3.26413709 8.4375 5.5 C12.53834111 8.83307591 16.68239062 12.09644665 20.875 15.3125 C21.42212646 15.73273438 21.96925293 16.15296875 22.53295898 16.5859375 C25.34291011 18.7407097 28.16224999 20.88196919 31 23 C30.90234375 24.69921875 30.90234375 24.69921875 30 27 C27.88298055 28.75780335 25.83620623 30.28753602 23.5625 31.8125 C22.93158447 32.24828369 22.30066895 32.68406738 21.65063477 33.13305664 C20.37327745 34.0146131 19.09293278 34.89185735 17.80957031 35.76464844 C15.32984548 37.4574989 12.88563789 39.19939606 10.4375 40.9375 C8.01516686 42.64614746 6.06045583 43.97730741 3.2734375 45.0234375 C0.48179816 47.45053288 0.58501922 48.29348414 0.29296875 51.88671875 C0.23318558 53.81970781 0.19898839 55.7536208 0.1875 57.6875 C0.16236328 58.67556641 0.13722656 59.66363281 0.11132812 60.68164062 C0.05239448 63.12149336 0.01616192 65.55954995 0 68 C-3.88597103 67.47537719 -5.86945389 66.60997564 -8.6875 63.90234375 C-13.20505538 59.74886767 -18.03768815 56.16417796 -23 52.5625 C-23.87011719 51.92634766 -24.74023438 51.29019531 -25.63671875 50.63476562 C-27.75540492 49.08649496 -29.87649778 47.54165492 -32 46 C-31.25146484 41.20849609 -31.25146484 41.20849609 -28.98828125 39.33203125 C-28.10527344 38.83058594 -27.22226562 38.32914062 -26.3125 37.8125 C-21.56200787 34.98334566 -17.04134982 31.98338164 -12.5625 28.75 C-11.97186768 28.32565674 -11.38123535 27.90131348 -10.77270508 27.46411133 C-9.1779359 26.31475486 -7.58875003 25.15766244 -6 24 C-5.28859863 23.55446777 -4.57719727 23.10893555 -3.84423828 22.64990234 C-1.82191986 21.15332894 -1.82191986 21.15332894 -1.4699707 18.83935547 C-1.45538818 18.02354004 -1.44080566 17.20772461 -1.42578125 16.3671875 C-1.39806641 15.47902344 -1.37035156 14.59085937 -1.34179688 13.67578125 C-1.33212891 12.75152344 -1.32246094 11.82726562 -1.3125 10.875 C-1.27059902 9.03897503 -1.22521792 7.20302502 -1.17578125 5.3671875 C-1.16458252 4.55362793 -1.15338379 3.74006836 -1.1418457 2.90185547 C-1 1 -1 1 0 0 Z " fill="#F46D13" transform="translate(586,338)"/>
<path d="M0 0 C6.93 0 13.86 0 21 0 C22 1 22 1 22.12025452 3.58790588 C22.1169236 5.31665199 22.1169236 5.31665199 22.11352539 7.08032227 C22.11344986 8.38159561 22.11337433 9.68286896 22.11329651 11.02357483 C22.10818909 12.45451902 22.10297308 13.88546282 22.09765625 15.31640625 C22.09579203 16.7722926 22.09436815 18.22817957 22.09336853 19.68406677 C22.08954365 23.52279379 22.07971364 27.36148319 22.06866455 31.20019531 C22.05844978 35.11457816 22.05387077 39.02896706 22.04882812 42.94335938 C22.03809133 50.62892541 22.02049479 58.31445265 22 66 C14.74 66 7.48 66 0 66 C0 44.22 0 22.44 0 0 Z " fill="#F1F1F3" transform="translate(748,451)"/>
<path d="M0 0 C3.47914941 -0.02887814 6.95826831 -0.04675687 10.4375 -0.0625 C11.92733398 -0.07506836 11.92733398 -0.07506836 13.44726562 -0.08789062 C14.39150391 -0.09111328 15.33574219 -0.09433594 16.30859375 -0.09765625 C17.62041626 -0.10551147 17.62041626 -0.10551147 18.95874023 -0.11352539 C21 0 21 0 22 1 C22.09409479 3.02494231 22.11743122 5.0531987 22.11352539 7.08032227 C22.11344986 8.38159561 22.11337433 9.68286896 22.11329651 11.02357483 C22.10818909 12.45451902 22.10297308 13.88546282 22.09765625 15.31640625 C22.09579203 16.7722926 22.09436815 18.22817957 22.09336853 19.68406677 C22.08954365 23.52279379 22.07971364 27.36148319 22.06866455 31.20019531 C22.05844978 35.11457816 22.05387077 39.02896706 22.04882812 42.94335938 C22.03809134 50.62892343 22.02101529 58.31445645 22 66 C18.52085059 66.02887814 15.04173169 66.04675687 11.5625 66.0625 C10.07266602 66.07506836 10.07266602 66.07506836 8.55273438 66.08789062 C7.60849609 66.09111328 6.66425781 66.09433594 5.69140625 66.09765625 C4.81685791 66.10289307 3.94230957 66.10812988 3.04125977 66.11352539 C1 66 1 66 0 65 C-0.09409479 62.97505769 -0.11743122 60.9468013 -0.11352539 58.91967773 C-0.11344986 57.61840439 -0.11337433 56.31713104 -0.11329651 54.97642517 C-0.10818909 53.54548098 -0.10297308 52.11453718 -0.09765625 50.68359375 C-0.09579203 49.2277074 -0.09436815 47.77182043 -0.09336853 46.31593323 C-0.08954365 42.47720621 -0.07971364 38.63851681 -0.06866455 34.79980469 C-0.05844978 30.88542184 -0.05387077 26.97103294 -0.04882812 23.05664062 C-0.03809134 15.37107657 -0.02101529 7.68554355 0 0 Z " fill="#F2F3F4" transform="translate(554,451)"/>
<path d="M0 0 C4.41410253 2.40910526 8.28314723 5.13558381 10 10 C10.3359375 13.4609375 10.3359375 13.4609375 10.375 17.375 C10.40335937 18.66148437 10.43171875 19.94796875 10.4609375 21.2734375 C9.82775076 26.39259131 7.71132158 29.44425311 3.9375 32.875 C-0.6767043 34.64214207 -5.12772152 34.66039919 -10 34 C-14.00133515 31.74924898 -15.97556272 29.07143097 -18 25 C-18.43359375 21.44140625 -18.43359375 21.44140625 -18.4375 17.5625 C-18.45683594 16.28503906 -18.47617187 15.00757813 -18.49609375 13.69140625 C-17.75887244 8.20578308 -15.37137215 5.18436686 -11.25 1.625 C-7.34548515 -0.32725742 -4.22661719 -1.0566543 0 0 Z " fill="#1E1745" transform="translate(432,466)"/>
<path d="M0 0 C3.55039561 2.01574776 5.35227667 4.28178221 7 8 C8.18319935 15.08276279 8.03752086 22.26880297 4.1875 28.51171875 C1.77211497 31.53889539 -0.28949352 32.78190264 -4.14453125 33.2734375 C-8.87072754 33.47722042 -12.33217642 33.24864374 -16 30 C-20.57148056 24.44009121 -20.44130597 19.35365614 -20.43359375 12.3046875 C-19.80790553 7.53592861 -17.68663905 4.07219921 -14 1 C-9.27951372 -0.57349543 -4.90886107 -0.8943822 0 0 Z " fill="#171141" transform="translate(514,467)"/>
<path d="M0 0 C4.1460495 1.71249871 6.76513235 4.10967484 9 8 C9.95572517 14.25469027 9.21460094 19.56843289 6 25 C2.83453602 28.06654323 -0.24868211 28.27714866 -4.5 28.5 C-8.58660343 28.39549736 -9.69310661 28.23173582 -13.0625 25.6875 C-17.59096954 19.40607451 -17.95223943 14.68391224 -17 7 C-13.36113587 -0.45358416 -7.44875736 -0.64720641 0 0 Z " fill="#1A1342" transform="translate(704,467)"/>
<path d="M0 0 C3.20923885 1.45543712 5.72056003 3.26413709 8.4375 5.5 C12.53834111 8.83307591 16.68239062 12.09644665 20.875 15.3125 C21.42212646 15.73273438 21.96925293 16.15296875 22.53295898 16.5859375 C25.34291011 18.7407097 28.16224999 20.88196919 31 23 C30.90234375 24.69921875 30.90234375 24.69921875 30 27 C27.88298055 28.75780335 25.83620623 30.28753602 23.5625 31.8125 C22.93158447 32.24828369 22.30066895 32.68406738 21.65063477 33.13305664 C20.37327745 34.0146131 19.09293278 34.89185735 17.80957031 35.76464844 C15.32984548 37.4574989 12.88563789 39.19939606 10.4375 40.9375 C8.01516686 42.64614746 6.06045583 43.97730741 3.2734375 45.0234375 C0.48179816 47.45053288 0.58501922 48.29348414 0.29296875 51.88671875 C0.23318558 53.81970781 0.19898839 55.7536208 0.1875 57.6875 C0.16236328 58.67556641 0.13722656 59.66363281 0.11132812 60.68164062 C0.05239448 63.12149336 0.01616192 65.55954995 0 68 C-3.88597103 67.47537719 -5.86945389 66.60997564 -8.6875 63.90234375 C-13.20505538 59.74886767 -18.03768815 56.16417796 -23 52.5625 C-23.87011719 51.92634766 -24.74023438 51.29019531 -25.63671875 50.63476562 C-27.75540492 49.08649496 -29.87649778 47.54165492 -32 46 C-31.25146484 41.20849609 -31.25146484 41.20849609 -28.98828125 39.33203125 C-28.10527344 38.83058594 -27.22226562 38.32914062 -26.3125 37.8125 C-21.56200787 34.98334566 -17.04134982 31.98338164 -12.5625 28.75 C-11.97186768 28.32565674 -11.38123535 27.90131348 -10.77270508 27.46411133 C-9.1779359 26.31475486 -7.58875003 25.15766244 -6 24 C-5.28859863 23.55446777 -4.57719727 23.10893555 -3.84423828 22.64990234 C-1.82191986 21.15332894 -1.82191986 21.15332894 -1.4699707 18.83935547 C-1.45538818 18.02354004 -1.44080566 17.20772461 -1.42578125 16.3671875 C-1.39806641 15.47902344 -1.37035156 14.59085937 -1.34179688 13.67578125 C-1.33212891 12.75152344 -1.32246094 11.82726562 -1.3125 10.875 C-1.27059902 9.03897503 -1.22521792 7.20302502 -1.17578125 5.3671875 C-1.16458252 4.55362793 -1.15338379 3.74006836 -1.1418457 2.90185547 C-1 1 -1 1 0 0 Z M1 7 C0.67 12.61 0.34 18.22 0 24 C-5 26 -5 26 -7.1875 26.8125 C-9.25631345 27.91006594 -9.25631345 27.91006594 -9.9375 30.5625 C-10.4634375 31.7690625 -10.4634375 31.7690625 -11 33 C-12.66666667 33.33333333 -14.33333333 33.66666667 -16 34 C-17.85876991 35.42916862 -19.55361874 36.98642563 -21.28515625 38.56640625 C-23.36089937 40.30170859 -25.41958396 41.21805575 -28 42 C-27.67 43.65 -27.34 45.3 -27 47 C-25.35 47.33 -23.7 47.66 -22 48 C-22 48.99 -22 49.98 -22 51 C-21.38125 51.0825 -20.7625 51.165 -20.125 51.25 C-18 52 -18 52 -16.75 54.0625 C-16.5025 54.701875 -16.255 55.34125 -16 56 C-15.34 56 -14.68 56 -14 56 C-14 56.66 -14 57.32 -14 58 C-12.68 58.33 -11.36 58.66 -10 59 C-10 59.66 -10 60.32 -10 61 C-7.69 61.66 -5.38 62.32 -3 63 C-2.93683594 61.81921875 -2.87367188 60.6384375 -2.80859375 59.421875 C-2.68662648 57.86444683 -2.56283247 56.30716097 -2.4375 54.75 C-2.40076172 53.97269531 -2.36402344 53.19539063 -2.32617188 52.39453125 C-1.8158428 46.70800727 -1.8158428 46.70800727 0.59033203 44.61987305 C2.48046875 43.55859375 2.48046875 43.55859375 6 42 C7.01801357 41.01834406 8.0246803 40.02408568 9 39 C9.99 38.67 10.98 38.34 12 38 C12 37.01 12 36.02 12 35 C12.99 35 13.98 35 15 35 C15 34.34 15 33.68 15 33 C15.5775 32.731875 16.155 32.46375 16.75 32.1875 C19.03995273 31.06360928 19.03995273 31.06360928 21 29.4375 C23.04443806 27.96806014 24.54522028 27.43835352 27 27 C27 25.68 27 24.36 27 23 C25.35 22.67 23.7 22.34 22 22 C22 20.68 22 19.36 22 18 C21.38125 17.9175 20.7625 17.835 20.125 17.75 C17.32494581 16.76174558 17.25886068 15.59640015 16 13 C13.00711009 11.00474006 11.76914404 11 8 11 C8 9.68 8 8.36 8 7 C4.98968256 6.06576355 4.13349732 5.95550089 1 7 Z " fill="#D46B33" transform="translate(586,338)"/>
<path d="M0 0 C3.52121839 2.04230667 4.75217677 3.62826516 7 7 C7.43660384 10.30571478 7.71042728 12.81419387 5.94921875 15.75390625 C4.16506981 17.93804138 2.54181233 19.72909383 0 21 C-4.87695917 21.40837661 -9.44274485 21.64885631 -14 19.75 C-17.40842475 16.76762834 -18.81824933 15.22681705 -19.5 10.625 C-18.84053371 5.84386936 -17.37565893 4.37565893 -14 1 C-9.82691937 -1.08654031 -4.54530134 -0.44906849 0 0 Z " fill="#F2F1F4" transform="translate(571,422)"/>
<path d="M0 0 C2.63566309 1.02780684 3.86979973 2.03797343 6 4 C7.23811719 7.71435156 7.69096136 11.14713935 7 15 C4.82425584 17.69105198 3.08934144 19.45532928 0 21 C-5.1200842 21.25600421 -9.28297796 21.25130597 -14 19 C-17.01709676 16.22109509 -17.89775749 14.62481534 -18.5625 10.5625 C-17.82055613 5.86352213 -16.33288893 4.33288893 -13 1 C-9.05542435 -0.97228782 -4.29911288 -0.44807655 0 0 Z " fill="#F4F3F6" transform="translate(764,422)"/>
<path d="M0 0 C1.670625 0.061875 1.670625 0.061875 3.375 0.125 C3.375 1.115 3.375 2.105 3.375 3.125 C4.695 3.455 6.015 3.785 7.375 4.125 C7.375 4.785 7.375 5.445 7.375 6.125 C9.685 6.785 11.995 7.445 14.375 8.125 C14.375 9.115 14.375 10.105 14.375 11.125 C15.695 11.455 17.015 11.785 18.375 12.125 C18.375 13.115 18.375 14.105 18.375 15.125 C19.24125 15.2796875 19.24125 15.2796875 20.125 15.4375 C22.75627015 16.24149921 24.36188093 17.25567515 26.375 19.125 C26.375 20.115 26.375 21.105 26.375 22.125 C27.035 22.125 27.695 22.125 28.375 22.125 C28.045 22.785 27.715 23.445 27.375 24.125 C24.7682783 22.14918117 22.16469395 20.169278 19.5625 18.1875 C18.79091553 17.60009033 18.01933105 17.01268066 17.22436523 16.4074707 C11.82527101 12.2794801 6.55688497 8.03997699 1.37890625 3.63671875 C-0.47274438 1.92425382 -0.47274438 1.92425382 -2.625 2.125 C-2.59245117 2.68372803 -2.55990234 3.24245605 -2.52636719 3.81811523 C-1.8229137 19.74279003 -1.8229137 19.74279003 -5.90625 25.140625 C-9.03491763 27.42949237 -12.21964003 29.27517483 -15.625 31.125 C-17.97763628 32.71562503 -20.2645761 34.39414884 -22.5625 36.0625 C-26.1684279 38.59603299 -29.46052081 40.66014636 -33.625 42.125 C-34.08592705 44.44190241 -34.08592705 44.44190241 -33.625 47.125 C-31.21914208 49.48108137 -31.21914208 49.48108137 -28.125 51.4375 C-27.1040625 52.13488281 -26.083125 52.83226562 -25.03125 53.55078125 C-24.2371875 54.07027344 -23.443125 54.58976562 -22.625 55.125 C-24.625 56.125 -24.625 56.125 -26.9375 55.48828125 C-28.2678125 54.96814453 -28.2678125 54.96814453 -29.625 54.4375 C-30.511875 54.10363281 -31.39875 53.76976562 -32.3125 53.42578125 C-34.99803563 51.91516746 -35.7122103 51.0405577 -36.625 48.125 C-36.59486729 45.37287881 -36.07982541 42.85395247 -35.625 40.125 C-34.84125 39.8775 -34.0575 39.63 -33.25 39.375 C-30.49839737 38.41706361 -30.49839737 38.41706361 -29.77734375 36.17578125 C-28.19330742 33.35673354 -26.58356965 33.06662531 -23.5625 32.0625 C-20.88795812 31.22465994 -20.88795812 31.22465994 -18.625 30.125 C-18.295 29.135 -17.965 28.145 -17.625 27.125 C-15.63776732 26.42118843 -13.63722047 25.7538189 -11.625 25.125 C-11.295 24.465 -10.965 23.805 -10.625 23.125 C-9.305 23.125 -7.985 23.125 -6.625 23.125 C-6.60518066 22.49932129 -6.58536133 21.87364258 -6.56494141 21.22900391 C-6.46985774 18.40223481 -6.36011254 15.57622185 -6.25 12.75 C-6.2190625 11.76515625 -6.188125 10.7803125 -6.15625 9.765625 C-6.11757813 8.82460938 -6.07890625 7.88359375 -6.0390625 6.9140625 C-6.0076416 6.04475098 -5.9762207 5.17543945 -5.94384766 4.27978516 C-5.35028432 0.26846053 -3.87302193 0.13355248 0 0 Z " fill="#2D1129" transform="translate(588.625,336.875)"/>
<path d="M0 0 C0.66 0.33 1.32 0.66 2 1 C-0.64310063 5.50306033 -2.18898198 7.20985376 -7 9 C-8.82568896 10.48440026 -10.5435828 12.04463132 -12.25390625 13.66015625 C-14.16957134 15.1301185 -15.64278312 15.58220007 -18 16 C-17.67 17.65 -17.34 19.3 -17 21 C-15.68 21.33 -14.36 21.66 -13 22 C-13 22.99 -13 23.98 -13 25 C-11.35 25.33 -9.7 25.66 -8 26 C-7.67 27.32 -7.34 28.64 -7 30 C-6.34 30 -5.68 30 -5 30 C-5 30.66 -5 31.32 -5 32 C-3.68 32.33 -2.36 32.66 -1 33 C-1 33.66 -1 34.32 -1 35 C0.32 35.33 1.64 35.66 3 36 C3 36.66 3 37.32 3 38 C4.32 38 5.64 38 7 38 C7.33 32.39 7.66 26.78 8 21 C8.33 21 8.66 21 9 21 C9 27.93 9 34.86 9 42 C3.41462632 40.88292526 3.41462632 40.88292526 0.3125 37.90234375 C-4.20505538 33.74886767 -9.03768815 30.16417796 -14 26.5625 C-14.87011719 25.92634766 -15.74023438 25.29019531 -16.63671875 24.63476562 C-18.75540492 23.08649496 -20.87649778 21.54165492 -23 20 C-22.26464844 15.21728516 -22.26464844 15.21728516 -19.8828125 13.26171875 C-18.97273437 12.74222656 -18.06265625 12.22273438 -17.125 11.6875 C-11.14386357 8.12860624 -5.57892011 4.15451498 0 0 Z " fill="#C0643C" transform="translate(577,364)"/>
<path d="M0 0 C-0.47759766 1.21236328 -0.47759766 1.21236328 -0.96484375 2.44921875 C-2.1855225 6.63637718 -2.41097538 10.47741763 -2.5625 14.8125 C-2.87759516 22.87759516 -2.87759516 22.87759516 -4 24 C-5.85287502 24.07226502 -7.70833878 24.0838122 -9.5625 24.0625 C-10.57441406 24.05347656 -11.58632813 24.04445313 -12.62890625 24.03515625 C-13.80259766 24.01775391 -13.80259766 24.01775391 -15 24 C-15.33 22.35 -15.66 20.7 -16 19 C-16.5775 18.87625 -17.155 18.7525 -17.75 18.625 C-22.00858369 17.44206009 -22.00858369 17.44206009 -24 16 C-24.75 12.875 -24.75 12.875 -25 10 C-19.5256989 12.85615709 -14.96796493 16.33115979 -10.234375 20.29296875 C-8.02578057 22.1717676 -8.02578057 22.1717676 -5 23 C-5.01571045 22.37432129 -5.0314209 21.74864258 -5.04760742 21.10400391 C-5.10984675 18.27776069 -5.14895462 15.45166139 -5.1875 12.625 C-5.21263672 11.64015625 -5.23777344 10.6553125 -5.26367188 9.640625 C-5.27333984 8.69960938 -5.28300781 7.75859375 -5.29296875 6.7890625 C-5.3086792 5.91975098 -5.32438965 5.05043945 -5.34057617 4.15478516 C-5.22818604 3.44370605 -5.1157959 2.73262695 -5 2 C-2 0 -2 0 0 0 Z " fill="#260C28" transform="translate(591,383)"/>
<path d="M0 0 C1.134375 0.020625 2.26875 0.04125 3.4375 0.0625 C3.4375 1.0525 3.4375 2.0425 3.4375 3.0625 C4.7575 3.3925 6.0775 3.7225 7.4375 4.0625 C7.4375 4.7225 7.4375 5.3825 7.4375 6.0625 C9.7475 6.7225 12.0575 7.3825 14.4375 8.0625 C14.4375 9.0525 14.4375 10.0425 14.4375 11.0625 C15.7575 11.3925 17.0775 11.7225 18.4375 12.0625 C18.4375 13.0525 18.4375 14.0425 18.4375 15.0625 C19.30375 15.2171875 19.30375 15.2171875 20.1875 15.375 C22.81877015 16.17899921 24.42438093 17.19317515 26.4375 19.0625 C26.4375 20.0525 26.4375 21.0425 26.4375 22.0625 C27.0975 22.0625 27.7575 22.0625 28.4375 22.0625 C28.1075 22.7225 27.7775 23.3825 27.4375 24.0625 C24.8307783 22.08668117 22.22719395 20.106778 19.625 18.125 C18.85341553 17.53759033 18.08183105 16.95018066 17.28686523 16.3449707 C11.88777101 12.2169801 6.61938497 7.97747699 1.44140625 3.57421875 C-0.41024438 1.86175382 -0.41024438 1.86175382 -2.5625 2.0625 C-2.8925 8.6625 -3.2225 15.2625 -3.5625 22.0625 C-3.8925 22.0625 -4.2225 22.0625 -4.5625 22.0625 C-4.59137814 18.58335059 -4.60925687 15.10423169 -4.625 11.625 C-4.63337891 10.63177734 -4.64175781 9.63855469 -4.65039062 8.61523438 C-4.65361328 7.67099609 -4.65683594 6.72675781 -4.66015625 5.75390625 C-4.66539307 4.87935791 -4.67062988 4.00480957 -4.67602539 3.10375977 C-4.47703798 -0.47416227 -3.71957376 0.06525568 0 0 Z " fill="#461720" transform="translate(588.5625,336.9375)"/>
<path d="M0 0 C-3.04125275 2.08393807 -6.08307675 4.16704082 -9.125 6.25 C-9.9809375 6.83652344 -10.836875 7.42304688 -11.71875 8.02734375 C-13.38841567 9.17042255 -15.05928163 10.31175043 -16.73144531 11.45117188 C-18.12041331 12.39947288 -19.50603376 13.3527299 -20.88574219 14.31445312 C-24.7814429 17 -24.7814429 17 -27 17 C-26.98839844 18.05960937 -26.97679687 19.11921875 -26.96484375 20.2109375 C-26.95546524 21.59895658 -26.94636511 22.98697755 -26.9375 24.375 C-26.92912109 25.07367188 -26.92074219 25.77234375 -26.91210938 26.4921875 C-26.88671875 31.7734375 -26.88671875 31.7734375 -28 34 C-29.32 34 -30.64 34 -32 34 C-32 33.34 -32 32.68 -32 32 C-32.66 31.67 -33.32 31.34 -34 31 C-32.68 31.33 -31.36 31.66 -30 32 C-29.88785156 30.33710938 -29.88785156 30.33710938 -29.7734375 28.640625 C-29.64208222 27.17695183 -29.50918868 25.71341613 -29.375 24.25 C-29.32988281 23.52039063 -29.28476562 22.79078125 -29.23828125 22.0390625 C-28.80507178 17.7069678 -28.50990382 16.43321644 -25.0390625 13.484375 C-22 12 -22 12 -20 12 C-19.67 11.01 -19.34 10.02 -19 9 C-17.35 8.67 -15.7 8.34 -14 8 C-14 7.01 -14 6.02 -14 5 C-13.01 5 -12.02 5 -11 5 C-11 4.34 -11 3.68 -11 3 C-9.73581754 2.30034557 -8.46334598 1.61565237 -7.1875 0.9375 C-6.47980469 0.55464844 -5.77210938 0.17179687 -5.04296875 -0.22265625 C-3 -1 -3 -1 0 0 Z " fill="#D3662D" transform="translate(612,368)"/>
<path d="M0 0 C0.90492188 0.02320313 1.80984375 0.04640625 2.7421875 0.0703125 C4.10730469 0.09738281 4.10730469 0.09738281 5.5 0.125 C6.19867187 0.14820313 6.89734375 0.17140625 7.6171875 0.1953125 C7.6171875 0.5253125 7.6171875 0.8553125 7.6171875 1.1953125 C6.039375 1.5665625 6.039375 1.5665625 4.4296875 1.9453125 C0.71158445 3.0539558 -1.7724903 4.20111939 -4.3828125 7.1953125 C-5.08196699 10.19390841 -5.31057767 13.12204882 -5.3828125 16.1953125 C-5.7128125 16.1953125 -6.0428125 16.1953125 -6.3828125 16.1953125 C-6.7128125 26.7553125 -7.0428125 37.3153125 -7.3828125 48.1953125 C-7.7128125 48.1953125 -8.0428125 48.1953125 -8.3828125 48.1953125 C-8.48196211 42.60861342 -8.55441355 37.02243064 -8.60253906 31.43505859 C-8.62260879 29.53587925 -8.64987101 27.63676135 -8.68457031 25.73779297 C-8.73329359 23.00212411 -8.75582757 20.26727479 -8.7734375 17.53125 C-8.79408264 16.68726654 -8.81472778 15.84328308 -8.83599854 14.97372437 C-8.83804999 9.53907598 -7.96397301 6.5281671 -4.3828125 2.1953125 C-2.3828125 0.1953125 -2.3828125 0.1953125 0 0 Z " fill="#444160" transform="translate(812.3828125,467.8046875)"/>
<path d="M0 0 C0.75 1.6875 0.75 1.6875 1 4 C-1.93470383 8.46488945 -5.46851908 10.86415852 -9.9375 13.5625 C-11.15664171 14.31105042 -12.37412038 15.06231678 -13.58984375 15.81640625 C-14.46358643 16.35418701 -14.46358643 16.35418701 -15.35498047 16.90283203 C-17.24578148 18.11358561 -17.24578148 18.11358561 -19.69140625 20.33984375 C-22 22 -22 22 -24.3125 21.75 C-24.869375 21.5025 -25.42625 21.255 -26 21 C-20.11563317 16.2449561 -14.03169978 11.93575149 -7.69921875 7.796875 C-2.72977523 4.81034183 -2.72977523 4.81034183 0 0 Z " fill="#4A191D" transform="translate(617,361)"/>
<path d="M0 0 C2.88437779 1.29299694 4.87219421 2.65941363 7 5 C4.03 4.505 4.03 4.505 1 4 C1.08701172 5.86205078 1.08701172 5.86205078 1.17578125 7.76171875 C1.22269238 9.40360814 1.26819109 11.04553832 1.3125 12.6875 C1.3753418 13.91243164 1.3753418 13.91243164 1.43945312 15.16210938 C1.53197233 19.73255814 1.48446766 21.40737212 -1.51953125 25.08203125 C-2.33808594 25.71496094 -3.15664063 26.34789062 -4 27 C-4.99 26.34 -5.98 25.68 -7 25 C-6.19046875 24.55011719 -5.3809375 24.10023438 -4.546875 23.63671875 C-0.76159795 19.71791199 -1.25740147 16.07124412 -1.25 10.8125 C-1.21699159 8.98561149 -1.18071454 7.15877809 -1.140625 5.33203125 C-1.13579102 4.52483643 -1.13095703 3.7176416 -1.12597656 2.88598633 C-1 1 -1 1 0 0 Z " fill="#B76140" transform="translate(586,338)"/>
<path d="M0 0 C0.33 0 0.66 0 1 0 C2.46667812 6.42358362 2.4469954 12.93903447 2.6875 19.5 C2.74792929 20.83203659 2.80847507 22.1640679 2.86914062 23.49609375 C2.91619141 24.76582031 2.96324219 26.03554688 3.01171875 27.34375 C3.05772217 28.50068359 3.10372559 29.65761719 3.15112305 30.84960938 C2.99875192 34.02601811 2.36563257 36.15195709 1 39 C0.67 39 0.34 39 0 39 C0 26.13 0 13.26 0 0 Z " fill="#0F0A32" transform="translate(805,479)"/>
<path d="M0 0 C2.58148508 0.35606691 3.82045747 0.83328193 5.75 2.625 C7.54032547 6.02661839 7.52389904 8.20173198 7 12 C4.1948312 16.16767936 1.38582338 18.62928466 -3 21 C-3.66 21.66 -4.32 22.32 -5 23 C-8.31558143 25.24025773 -11.03433801 26.43347686 -15 27 C-11.19992607 22.80846117 -6.73719796 20.18338246 -1.95703125 17.26757812 C1.10278349 15.36087828 2.97053649 14.04419526 5 11 C5.16699232 7.87478167 5.16699232 7.87478167 5 5 C4.34 5 3.68 5 3 5 C3 4.01 3 3.02 3 2 C2.01 1.67 1.02 1.34 0 1 C0 0.67 0 0.34 0 0 Z " fill="#1F0F32" transform="translate(612,354)"/>
<path d="M0 0 C0.33 0 0.66 0 1 0 C2.8031891 18.60185003 2.8031891 18.60185003 -1.30859375 24.0703125 C-4.13040027 26.0414549 -6.88562126 27.54720321 -10 29 C-10.73734375 29.55429687 -11.4746875 30.10859375 -12.234375 30.6796875 C-14 32 -14 32 -16 32 C-15.505 30.515 -15.505 30.515 -15 29 C-14.34 28.67 -13.68 28.34 -13 28 C-12.67 27.01 -12.34 26.02 -12 25 C-10.01276732 24.29618843 -8.01222047 23.6288189 -6 23 C-5.67 22.34 -5.34 21.68 -5 21 C-3.68 21 -2.36 21 -1 21 C-0.67 14.07 -0.34 7.14 0 0 Z " fill="#2B0719" transform="translate(583,339)"/>
<path d="M0 0 C0 0.99 0 1.98 0 3 C-0.928125 3.680625 -0.928125 3.680625 -1.875 4.375 C-4.55658211 6.42562161 -5.02179421 7.77767503 -6 11 C-6.09454069 14.62543005 -5.93434353 18.19782987 -5.77734375 21.8203125 C-6 25 -6 25 -7.3359375 26.94921875 C-9 28 -9 28 -11.6875 27.6875 C-12.450625 27.460625 -13.21375 27.23375 -14 27 C-14 26.67 -14 26.34 -14 26 C-12.35 25.67 -10.7 25.34 -9 25 C-8.96261719 23.84242188 -8.92523437 22.68484375 -8.88671875 21.4921875 C-8.82102575 19.95309439 -8.75457958 18.4140333 -8.6875 16.875 C-8.65366211 15.73417969 -8.65366211 15.73417969 -8.61914062 14.5703125 C-8.38930469 9.72286371 -7.68865316 6.18809434 -5 2 C-2.3125 0.625 -2.3125 0.625 0 0 Z " fill="#1E0C2C" transform="translate(596,381)"/>
<path d="M0 0 C-0.31839844 0.80824219 -0.63679687 1.61648438 -0.96484375 2.44921875 C-2.1855225 6.63637718 -2.41097538 10.47741763 -2.5625 14.8125 C-2.87759516 22.87759516 -2.87759516 22.87759516 -4 24 C-5.66617115 24.04063832 -7.33388095 24.042721 -9 24 C-8.67 23.34 -8.34 22.68 -8 22 C-7.01 22.33 -6.02 22.66 -5 23 C-5.01571045 22.37432129 -5.0314209 21.74864258 -5.04760742 21.10400391 C-5.10984675 18.27776069 -5.14895462 15.45166139 -5.1875 12.625 C-5.21263672 11.64015625 -5.23777344 10.6553125 -5.26367188 9.640625 C-5.27333984 8.69960938 -5.28300781 7.75859375 -5.29296875 6.7890625 C-5.3086792 5.91975098 -5.32438965 5.05043945 -5.34057617 4.15478516 C-5.22818604 3.44370605 -5.1157959 2.73262695 -5 2 C-2 0 -2 0 0 0 Z " fill="#501E21" transform="translate(591,383)"/>
<path d="M0 0 C2.8755224 2.30498224 3.91250953 3.47763046 4.53125 7.171875 C4.46650696 14.58495321 4.0278968 19.70641125 0 26 C-0.99 26 -1.98 26 -3 26 C-1.515 22.535 -1.515 22.535 0 19 C0.33 19 0.66 19 1 19 C1.02697137 16.39576408 1.04682489 13.79180756 1.0625 11.1875 C1.07087891 10.44951172 1.07925781 9.71152344 1.08789062 8.95117188 C1.10259828 5.70077932 1.03531702 3.10595105 0 0 Z " fill="#4A4665" transform="translate(517,471)"/>
<path d="M0 0 C0.703125 1.765625 0.703125 1.765625 1 4 C-0.328125 5.921875 -0.328125 5.921875 -2.25 7.75 C-2.87390625 8.36359375 -3.4978125 8.9771875 -4.140625 9.609375 C-6 11 -6 11 -9 11 C-9.66 12.98 -10.32 14.96 -11 17 C-11.99 16.34 -12.98 15.68 -14 15 C-4.58997722 4.44191344 -4.58997722 4.44191344 0 0 Z " fill="#1F1A41" transform="translate(387,452)"/>
<path d="M0 0 C0.99386719 0.00902344 1.98773438 0.01804687 3.01171875 0.02734375 C4.15060547 0.04474609 4.15060547 0.04474609 5.3125 0.0625 C5.6425 0.7225 5.9725 1.3825 6.3125 2.0625 C3.3125 3.0625 3.3125 3.0625 -0.125 2.9375 C-4.07543591 3.07611179 -4.78238148 3.62594898 -7.6875 6.0625 C-9.66764432 6.78601427 -11.66571315 7.46515389 -13.6875 8.0625 C-12.39739008 5.18456249 -11.11388194 3.10066083 -8.6875 1.0625 C-5.53819107 0.01273036 -3.29935544 -0.03881595 0 0 Z " fill="#322D50" transform="translate(508.6875,466.9375)"/>
<path d="M0 0 C7.59 0 15.18 0 23 0 C23 0.33 23 0.66 23 1 C20.69 1.33 18.38 1.66 16 2 C16 2.33 16 2.66 16 3 C13.89646505 3.0810206 11.79204048 3.13919907 9.6875 3.1875 C8.51574219 3.22230469 7.34398437 3.25710938 6.13671875 3.29296875 C3 3 3 3 0 0 Z " fill="#201B41" transform="translate(587,517)"/>
<path d="M0 0 C0.66 0 1.32 0 2 0 C1.67 1.32 1.34 2.64 1 4 C0.67 2.68 0.34 1.36 0 0 Z M3.66796875 5.0234375 C4.56064453 5.075 5.45332031 5.1265625 6.37304688 5.1796875 C7.30181641 5.24414062 8.23058594 5.30859375 9.1875 5.375 C10.59805664 5.46007812 10.59805664 5.46007812 12.03710938 5.546875 C14.35884909 5.68830077 16.6794993 5.8397033 19 6 C19 6.33 19 6.66 19 7 C12.4 7.33 5.8 7.66 -1 8 C-1.99 10.64 -2.98 13.28 -4 16 C-4.95930163 12.1627935 -5.15195929 10.64787108 -4 7 C-0.72721861 4.81814574 -0.0648752 4.78567674 3.66796875 5.0234375 Z " fill="#120D3A" transform="translate(750,443)"/>
<path d="M0 0 C0 3.96 0 7.92 0 12 C-0.99 12.33 -1.98 12.66 -3 13 C-2.67 11.35 -2.34 9.7 -2 8 C-3.65 7.67 -5.3 7.34 -7 7 C-6.04004484 4.12013451 -3.56234645 0 0 0 Z " fill="#2A2449" transform="translate(713,504)"/>
<path d="M0 0 C0 0.99 0 1.98 0 3 C-0.804375 3.391875 -1.60875 3.78375 -2.4375 4.1875 C-5.13645202 5.69334078 -5.13645202 5.69334078 -5.5546875 7.96875 C-5.78736264 9.97116633 -5.90097759 11.98654441 -6 14 C-6.33 14 -6.66 14 -7 14 C-7 9.38 -7 4.76 -7 0 C-3.86650268 -1.04449911 -3.01031744 -0.93423645 0 0 Z " fill="#EB6E20" transform="translate(594,345)"/>
<path d="M0 0 C0.33 0 0.66 0 1 0 C1 6.93 1 13.86 1 21 C-0.65 20.67 -2.3 20.34 -4 20 C-4.33 19.34 -4.66 18.68 -5 18 C-3.68 18.33 -2.36 18.66 -1 19 C-0.67 12.73 -0.34 6.46 0 0 Z " fill="#A85534" transform="translate(585,385)"/>
<path d="M0 0 C0.66 0.33 1.32 0.66 2 1 C-0.77167019 6.54334038 -0.77167019 6.54334038 -4.26953125 7.84375 C-6.51050564 8.32370672 -8.72604935 8.7181856 -11 9 C-7.56638098 5.36440339 -4.2026393 2.63886654 0 0 Z " fill="#BD5C36" transform="translate(577,364)"/>
<path d="M0 0 C8.03501094 -0.63019694 8.03501094 -0.63019694 12.0625 2 C12.701875 2.66 13.34125 3.32 14 4 C13.67 5.65 13.34 7.3 13 9 C12.67 7.68 12.34 6.36 12 5 C11.34 5 10.68 5 10 5 C10 4.34 10 3.68 10 3 C9.34 3 8.68 3 8 3 C8 2.34 8 1.68 8 1 C5.36 1 2.72 1 0 1 C0 0.67 0 0.34 0 0 Z " fill="#3B3754" transform="translate(619,467)"/>
<path d="M0 0 C1.32 0 2.64 0 4 0 C4 0.99 4 1.98 4 3 C5.65 3.33 7.3 3.66 9 4 C9.33 4.99 9.66 5.98 10 7 C7.69 6.34 5.38 5.68 3 5 C2.87625 4.360625 2.7525 3.72125 2.625 3.0625 C2.315625 2.0415625 2.315625 2.0415625 2 1 C1.34 0.67 0.68 0.34 0 0 Z " fill="#D97034" transform="translate(560,386)"/>
<path d="M0 0 C-1.6009131 1.15037471 -3.20585225 2.29514816 -4.8125 3.4375 C-6.15248047 4.39462891 -6.15248047 4.39462891 -7.51953125 5.37109375 C-10 7 -10 7 -13 8 C-11.8004855 4.40145651 -10.72074777 3.81383185 -7.625 1.75 C-6.83351563 1.20859375 -6.04203125 0.6671875 -5.2265625 0.109375 C-3 -1 -3 -1 0 0 Z " fill="#3E1018" transform="translate(567,372)"/>
<path d="M0 0 C1.32 0.33 2.64 0.66 4 1 C4.33 2.32 4.66 3.64 5 5 C3.35 5.33 1.7 5.66 0 6 C0 5.34 0 4.68 0 4 C-0.99 3.67 -1.98 3.34 -3 3 C-2.34 3 -1.68 3 -1 3 C-0.67 2.01 -0.34 1.02 0 0 Z " fill="#3D3957" transform="translate(348,491)"/>
<path d="M0 0 C1.65 0 3.3 0 5 0 C3.6581656 4.02550319 1.5772427 4.88285636 -2 7 C-2.66 7 -3.32 7 -4 7 C-3.67 6.01 -3.34 5.02 -3 4 C-2.34 3.67 -1.68 3.34 -1 3 C-0.67 2.01 -0.34 1.02 0 0 Z " fill="#350D1B" transform="translate(571,364)"/>
<path d="M0 0 C0.33 0.66 0.66 1.32 1 2 C1.66 2.33 2.32 2.66 3 3 C-0.42094242 5.28062828 -1.68187222 5.21925007 -5.6875 5.125 C-7.17830078 5.09792969 -7.17830078 5.09792969 -8.69921875 5.0703125 C-9.45847656 5.04710937 -10.21773437 5.02390625 -11 5 C-11 4.67 -11 4.34 -11 4 C-9.741875 3.896875 -8.48375 3.79375 -7.1875 3.6875 C-4.39500343 3.35141192 -3.25566879 3.19974124 -1 1.4375 C-0.67 0.963125 -0.34 0.48875 0 0 Z " fill="#342E4E" transform="translate(705,490)"/>
<path d="M0 0 C1.98 0 3.96 0 6 0 C5.34 1.65 4.68 3.3 4 5 C3.01 5 2.02 5 1 5 C0.67 3.35 0.34 1.7 0 0 Z " fill="#EBE9F4" transform="translate(379,452)"/>
<path d="M0 0 C2.40072955 2.88087546 4.47291037 5.56404834 6 9 C5.34 9.66 4.68 10.32 4 11 C2.35 7.7 0.7 4.4 -1 1 C-0.67 0.67 -0.34 0.34 0 0 Z " fill="#251F45" transform="translate(372,485)"/>
<path d="M0 0 C0.66 0.33 1.32 0.66 2 1 C0.63875 1.86625 0.63875 1.86625 -0.75 2.75 C-3.97018576 4.83602168 -3.97018576 4.83602168 -6.25 7.25 C-7.11625 8.11625 -7.11625 8.11625 -8 9 C-8.66 9 -9.32 9 -10 9 C-8.65059235 4.95177706 -6.35249252 3.54789431 -3 1 C-2.01 0.67 -1.02 0.34 0 0 Z " fill="#BEBCCD" transform="translate(682,451)"/>
<path d="M0 0 C3.94139078 1.66751148 6.7892812 4.22710649 10 7 C9.01 7.495 9.01 7.495 8 8 C7.01 7.34 6.02 6.68 5 6 C5 5.34 5 4.68 5 4 C4.360625 3.896875 3.72125 3.79375 3.0625 3.6875 C2.381875 3.460625 1.70125 3.23375 1 3 C0.67 2.01 0.34 1.02 0 0 Z " fill="#3F1015" transform="translate(571,397)"/>
<path d="M0 0 C-3.465 2.97 -3.465 2.97 -7 6 C-7.66 5.67 -8.32 5.34 -9 5 C-7.93411431 2.09303901 -7.29651501 1.15567038 -4.5 -0.3125 C-2 -1 -2 -1 0 0 Z " fill="#D96B33" transform="translate(570,373)"/>
<path d="M0 0 C2.125 0.375 2.125 0.375 4 1 C3.2884375 1.6496875 3.2884375 1.6496875 2.5625 2.3125 C0.76313043 4.02309613 0.76313043 4.02309613 0 7 C-0.66 7 -1.32 7 -2 7 C-2.125 4.625 -2.125 4.625 -2 2 C-1.34 1.34 -0.68 0.68 0 0 Z " fill="#312A52" transform="translate(368,473)"/>
<path d="M0 0 C1.32 0.33 2.64 0.66 4 1 C4.66 3.31 5.32 5.62 6 8 C5.34 8.66 4.68 9.32 4 10 C1.125 3.375 1.125 3.375 0 0 Z " fill="#252144" transform="translate(458,462)"/>
<path d="M0 0 C1.32 0.33 2.64 0.66 4 1 C4 1.66 4 2.32 4 3 C4.99 3.33 5.98 3.66 7 4 C7 5.98 7 7.96 7 10 C6.34 9.01 5.68 8.02 5 7 C4.12927928 5.76779826 3.25415898 4.53869541 2.375 3.3125 C1.92898438 2.68988281 1.48296875 2.06726563 1.0234375 1.42578125 C0.68570313 0.95527344 0.34796875 0.48476563 0 0 Z " fill="#2C2648" transform="translate(647,453)"/>
<path d="M0 0 C0.33 0.66 0.66 1.32 1 2 C-0.65 3.65 -2.3 5.3 -4 7 C-4.99 6.34 -5.98 5.68 -7 5 C-4.69 3.35 -2.38 1.7 0 0 Z " fill="#C05D32" transform="translate(586,358)"/>
<path d="M0 0 C0 4.24645065 -1.81750806 6.38524772 -4 10 C-4.99 9.34 -5.98 8.68 -7 8 C-4.69 5.36 -2.38 2.72 0 0 Z " fill="#363252" transform="translate(380,459)"/>
<path d="M0 0 C0.33 0.66 0.66 1.32 1 2 C-0.98 4.64 -2.96 7.28 -5 10 C-5.66 9.67 -6.32 9.34 -7 9 C-4.69 6.03 -2.38 3.06 0 0 Z " fill="#D1CFDE" transform="translate(359,456)"/>
<path d="M0 0 C-0.99 0.33 -1.98 0.66 -3 1 C-3 1.66 -3 2.32 -3 3 C-5.64 3 -8.28 3 -11 3 C-8.15930939 0.15930939 -3.81147953 -1.90573977 0 0 Z " fill="#454160" transform="translate(721,539)"/>
<path d="M0 0 C0.66 0.33 1.32 0.66 2 1 C0.07423885 3.43929746 -1.80090595 5.80090595 -4 8 C-4.99 7.67 -5.98 7.34 -7 7 C-4.69 4.69 -2.38 2.38 0 0 Z " fill="#CECCDB" transform="translate(405,455)"/>
<path d="M0 0 C0.33 0 0.66 0 1 0 C1 2.31 1 4.62 1 7 C0.34 7 -0.32 7 -1 7 C-2.38232443 5.37373596 -3.71937515 3.7074998 -5 2 C-3.68 2.33 -2.36 2.66 -1 3 C-0.67 2.01 -0.34 1.02 0 0 Z " fill="#595672" transform="translate(713,452)"/>
<path d="M0 0 C1.65 0 3.3 0 5 0 C5 0.66 5 1.32 5 2 C5.99 2 6.98 2 8 2 C8.33 3.65 8.66 5.3 9 7 C7.88625 6.071875 7.88625 6.071875 6.75 5.125 C4.51198812 3.39562719 2.56260013 2.13893339 0 1 C0 0.67 0 0.34 0 0 Z " fill="#413C5D" transform="translate(447,453)"/>
<path d="M0 0 C2.31 0.66 4.62 1.32 7 2 C7 2.99 7 3.98 7 5 C4.0625 4.1875 4.0625 4.1875 1 3 C0.67 2.01 0.34 1.02 0 0 Z " fill="#2E0E26" transform="translate(596,343)"/>
<path d="M0 0 C0.33 0 0.66 0 1 0 C1.25 2.25 1.25 2.25 1 5 C-1 7.3125 -1 7.3125 -3 9 C-3 4.73012377 -2.36301527 3.40274199 0 0 Z " fill="#D7D5E2" transform="translate(441,491)"/>
<path d="M0 0 C-0.99 2.97 -1.98 5.94 -3 9 C-3.33 9 -3.66 9 -4 9 C-4 6.36 -4 3.72 -4 1 C-2 0 -2 0 0 0 Z " fill="#401413" transform="translate(591,383)"/>
<path d="M0 0 C0.625 1.875 0.625 1.875 1 4 C0.34 4.66 -0.32 5.32 -1 6 C-3.125 5.625 -3.125 5.625 -5 5 C-3.35 3.35 -1.7 1.7 0 0 Z " fill="#3E395C" transform="translate(729,530)"/>
<path d="M0 0 C1.65 1.32 3.3 2.64 5 4 C4.01 4.33 3.02 4.66 2 5 C2 5.66 2 6.32 2 7 C1.34 7 0.68 7 0 7 C0 4.69 0 2.38 0 0 Z " fill="#3D3954" transform="translate(804,452)"/>
<path d="M0 0 C0.53625 0.226875 1.0725 0.45375 1.625 0.6875 C-1.04166667 2.02083333 -3.70833333 3.35416667 -6.375 4.6875 C-7.035 4.0275 -7.695 3.3675 -8.375 2.6875 C-2.95961538 -0.38942308 -2.95961538 -0.38942308 0 0 Z " fill="#B5B2C5" transform="translate(625.375,450.3125)"/>
<path d="M0 0 C0.53625 0.226875 1.0725 0.45375 1.625 0.6875 C0.84125 0.97625 0.0575 1.265 -0.75 1.5625 C-3.47171632 2.53662254 -3.47171632 2.53662254 -5.375 4.6875 C-6.365 4.0275 -7.355 3.3675 -8.375 2.6875 C-2.95961538 -0.38942308 -2.95961538 -0.38942308 0 0 Z " fill="#BDBACC" transform="translate(495.375,450.3125)"/>
<path d="M0 0 C0.66 0 1.32 0 2 0 C2 1.32 2 2.64 2 4 C2.66 4.33 3.32 4.66 4 5 C4 5.66 4 6.32 4 7 C2.68 6.67 1.36 6.34 0 6 C-0.38218767 4.34385343 -0.71395102 2.67542976 -1 1 C-0.67 0.67 -0.34 0.34 0 0 Z " fill="#ED711E" transform="translate(559,379)"/>
</svg>
