<?xml version="1.0" encoding="UTF-8"?>
<svg version="1.1" xmlns="http://www.w3.org/2000/svg" viewBox="150 150 300 150">
<path d="M0 0 C0.85722656 -0.00515625 1.71445312 -0.0103125 2.59765625 -0.015625 C4.9375 0.25 4.9375 0.25 7.9375 2.25 C8.2675 1.92 8.5975 1.59 8.9375 1.25 C10.7642034 0.98986819 12.59982907 0.79076928 14.4375 0.625 C15.4378125 0.52960938 16.438125 0.43421875 17.46875 0.3359375 C18.2834375 0.30757812 19.098125 0.27921875 19.9375 0.25 C21.96941873 2.28191873 21.14952647 6.43917568 21.17578125 9.23046875 C21.183853 10.03607742 21.19192474 10.8416861 21.20024109 11.67170715 C21.21410138 13.38243446 21.22481479 15.09318964 21.23266602 16.80395508 C21.2498161 19.40955979 21.29367497 22.01387494 21.33789062 24.61914062 C21.34802288 26.28124067 21.35653731 27.94335151 21.36328125 29.60546875 C21.38078934 30.38069382 21.39829742 31.15591888 21.41633606 31.95463562 C21.39564127 37.16861919 20.39333893 40.12015688 16.9375 44.25 C10.20564739 48.49399404 3.25630877 48.39226038 -4.4375 48.3125 C-5.68466797 48.30573242 -5.68466797 48.30573242 -6.95703125 48.29882812 C-8.99221897 48.28713164 -11.02736923 48.26919935 -13.0625 48.25 C-14.293894 44.55581799 -13.70682764 42.0443739 -13.0625 38.25 C-9.85945126 37.42340678 -6.96969045 37.22834127 -3.6875 37.3125 C0.57307948 37.37672984 3.91540862 36.6192226 7.9375 35.25 C8.2675 33.6 8.5975 31.95 8.9375 30.25 C7.9475 30.765625 6.9575 31.28125 5.9375 31.8125 C1.69765995 33.61122002 -1.6717953 33.5440085 -6.0625 32.25 C-10.01374859 30.31165163 -11.7025025 28.86199575 -13.9375 25.0625 C-16.10520745 17.7163803 -15.6993377 11.98488463 -12.0625 5.25 C-8.82429914 1.16705109 -5.11295971 -0.03084742 0 0 Z M-0.4375 11.1875 C-2.78724722 14.16987148 -2.34037083 16.56821147 -2.0625 20.25 C-1.4025 20.25 -0.7425 20.25 -0.0625 20.25 C-0.0625 20.91 -0.0625 21.57 -0.0625 22.25 C1.67325649 23.12436418 1.67325649 23.12436418 3.9375 23.25 C6.88868716 21.88926358 6.88868716 21.88926358 8.9375 19.25 C8.8738921 15.54945591 8.8738921 15.54945591 7.9375 12.25 C3.81628518 10.36574142 3.81628518 10.36574142 -0.4375 11.1875 Z " fill="#E9E9EC" transform="translate(342.0625,220.75)"/>
<path d="M0 0 C0 15.51 0 31.02 0 47 C-4.66666667 47 -9.33333333 47 -14 47 C-15.4168698 47.22790735 -16.83351749 47.45719777 -18.25 47.6875 C-22.92220498 48.21929569 -25.85804085 47.35523167 -30 45 C-35.11722515 40.65228239 -36.31903977 35.52782562 -37 29 C-36.53862973 25.10926925 -35.77758432 21.50908313 -34 18 C-33.01 17.67 -32.02 17.34 -31 17 C-30.67 16.01 -30.34 15.02 -30 14 C-26.72077242 11.69918997 -23.73186685 11.75998717 -19.8125 11.8125 C-18.74644531 11.81894531 -17.68039063 11.82539063 -16.58203125 11.83203125 C-14 12 -14 12 -13 13 C-12.95101562 12.07316406 -12.90203125 11.14632812 -12.8515625 10.19140625 C-12.77679688 8.99386719 -12.70203125 7.79632813 -12.625 6.5625 C-12.55539063 5.36753906 -12.48578125 4.17257813 -12.4140625 2.94140625 C-12.27742188 1.97074219 -12.14078125 1.00007812 -12 0 C-10 -1 -10 -1 0 0 Z M-21.1875 23.5 C-23.8812413 27.21550524 -23.5041968 29.4622288 -23 34 C-22.05791909 36.19411252 -22.05791909 36.19411252 -20 37 C-16.90351124 37.16448881 -16.90351124 37.16448881 -14 36 C-11.92034971 32.92573436 -11.99869857 31.02559471 -12.1875 27.3125 C-12.67017559 23.7316934 -12.67017559 23.7316934 -16 22 C-19.02970006 21.71723582 -19.02970006 21.71723582 -21.1875 23.5 Z " fill="#E9E9EC" transform="translate(268,209)"/>
<path d="M0 0 C1.34771484 -0.00386719 1.34771484 -0.00386719 2.72265625 -0.0078125 C4.9375 0.125 4.9375 0.125 5.9375 1.125 C6.09436249 2.68448542 6.18826639 4.25042668 6.25390625 5.81640625 C6.31674805 7.23276367 6.31674805 7.23276367 6.38085938 8.67773438 C6.42017578 9.67095703 6.45949219 10.66417969 6.5 11.6875 C6.54318359 12.68458984 6.58636719 13.68167969 6.63085938 14.70898438 C6.73730298 17.1808415 6.83931928 19.6528031 6.9375 22.125 C7.9275 21.795 8.9175 21.465 9.9375 21.125 C9.9375 20.135 9.9375 19.145 9.9375 18.125 C12.68637797 15.01442756 14.33469111 13.34802081 18.4921875 12.76953125 C25.13035714 12.72142857 25.13035714 12.72142857 27.9375 14.125 C26.26348022 18.08177402 23.80600715 20.96964213 20.9375 24.125 C20.2775 24.125 19.6175 24.125 18.9375 24.125 C19.38708007 29.75545518 20.86771095 33.14445019 24 37.8125 C27.9375 43.70144991 27.9375 43.70144991 27.9375 48.125 C23.46504089 48.72221264 19.38183962 49.01070469 14.9375 48.125 C11.95680584 45.2025432 10.34105577 42.03444758 8.9375 38.125 C8.9375 37.465 8.9375 36.805 8.9375 36.125 C8.2775 36.125 7.6175 36.125 6.9375 36.125 C6.6075 40.085 6.2775 44.045 5.9375 48.125 C1.9775 48.125 -1.9825 48.125 -6.0625 48.125 C-6.99762434 45.31962697 -7.18432907 43.64334636 -7.17602539 40.74536133 C-7.17594986 39.86467484 -7.17587433 38.98398834 -7.17579651 38.07661438 C-7.17063522 37.12965195 -7.16547394 36.18268951 -7.16015625 35.20703125 C-7.1587413 34.23465012 -7.15732635 33.26226898 -7.15586853 32.26042175 C-7.15026817 29.15274996 -7.13771562 26.04515004 -7.125 22.9375 C-7.11998505 20.83138125 -7.11542213 18.72526137 -7.11132812 16.61914062 C-7.10029862 11.45439936 -7.08303375 6.28971187 -7.0625 1.125 C-4.56110398 -0.12569801 -2.78857309 -0.00802467 0 0 Z " fill="#E9E9EB" transform="translate(164.0625,207.875)"/>
<path d="M0 0 C1.19367188 -0.01675781 2.38734375 -0.03351563 3.6171875 -0.05078125 C8.60310195 0.46557737 11.88851915 2.04167246 15.375 5.625 C19.62231453 12.1476616 19.50817404 17.83650147 18.125 25.3125 C15.94662708 30.43167635 12.35456806 33.32158086 7.3125 35.5625 C0.05295026 37.27062935 -5.23268872 36.45885798 -11.875 33.3125 C-12.37 31.8275 -12.37 31.8275 -12.875 30.3125 C-13.865 29.9825 -14.855 29.6525 -15.875 29.3125 C-18.44294873 24.604594 -19.41704221 19.23757461 -18.44140625 13.97265625 C-16.75327066 8.24062524 -14.28209248 4.49673084 -9.14453125 1.203125 C-6.03586685 -0.01679838 -3.33182663 0.01074783 0 0 Z M-3.875 11.3125 C-6.34842266 15.02263399 -6.26003486 16.92310262 -5.875 21.3125 C-4.92326062 23.83290427 -4.92326062 23.83290427 -2.875 25.3125 C0.125 25.97916667 0.125 25.97916667 3.125 25.3125 C5.91982419 22.98347984 6.10995459 21.43286325 6.5625 17.8125 C6.41299231 14.28190098 6.41299231 14.28190098 4.3125 11.875 C1.19912485 9.65116061 -0.31635357 10.12628452 -3.875 11.3125 Z " fill="#E9E8EB" transform="translate(210.875,220.6875)"/>
<path d="M0 0 C1.65322266 0.01740234 1.65322266 0.01740234 3.33984375 0.03515625 C4.44457031 0.04417969 5.54929687 0.05320313 6.6875 0.0625 C7.54214844 0.07410156 8.39679688 0.08570313 9.27734375 0.09765625 C9.27734375 0.75765625 9.27734375 1.41765625 9.27734375 2.09765625 C10.26734375 2.09765625 11.25734375 2.09765625 12.27734375 2.09765625 C15.32743189 5.91060101 15.6359269 8.92108608 15.5703125 13.7109375 C15.55581055 15.58168945 15.55581055 15.58168945 15.54101562 17.49023438 C15.51587891 18.78380859 15.49074219 20.07738281 15.46484375 21.41015625 C15.44454102 23.37952148 15.44454102 23.37952148 15.42382812 25.38867188 C15.38852081 28.62517575 15.33471543 31.86146831 15.27734375 35.09765625 C11.31734375 35.09765625 7.35734375 35.09765625 3.27734375 35.09765625 C2.78234375 23.21765625 2.78234375 23.21765625 2.27734375 11.09765625 C-0.03265625 11.42765625 -2.34265625 11.75765625 -4.72265625 12.09765625 C-5.92536589 14.50307554 -5.92582288 16.20132216 -6.0390625 18.88671875 C-6.1019043 20.29824219 -6.1019043 20.29824219 -6.16601562 21.73828125 C-6.22499023 23.21554688 -6.22499023 23.21554688 -6.28515625 24.72265625 C-6.32833984 25.71523437 -6.37152344 26.7078125 -6.41601562 27.73046875 C-6.52226572 30.18602658 -6.6229808 32.64182276 -6.72265625 35.09765625 C-10.68265625 35.09765625 -14.64265625 35.09765625 -18.72265625 35.09765625 C-19.38265625 33.44765625 -20.04265625 31.79765625 -20.72265625 30.09765625 C-20.39265625 29.76765625 -20.06265625 29.43765625 -19.72265625 29.09765625 C-19.62338385 27.52203465 -19.59185672 25.94202581 -19.58984375 24.36328125 C-19.58855469 23.39648438 -19.58726562 22.4296875 -19.5859375 21.43359375 C-19.58980469 20.41523438 -19.59367187 19.396875 -19.59765625 18.34765625 C-19.59378906 17.34476563 -19.58992188 16.341875 -19.5859375 15.30859375 C-19.58722656 14.33664063 -19.58851563 13.3646875 -19.58984375 12.36328125 C-19.59097168 11.47415039 -19.59209961 10.58501953 -19.59326172 9.66894531 C-19.65961577 7.04767882 -19.65961577 7.04767882 -20.29345703 4.33105469 C-20.43509277 3.5940332 -20.57672852 2.85701172 -20.72265625 2.09765625 C-19.72265625 1.09765625 -19.72265625 1.09765625 -16.88671875 1 C-15.13488281 1.01740234 -15.13488281 1.01740234 -13.34765625 1.03515625 C-12.18492187 1.04417969 -11.0221875 1.05320313 -9.82421875 1.0625 C-8.80070312 1.07410156 -7.7771875 1.08570313 -6.72265625 1.09765625 C-5.73265625 1.09765625 -4.74265625 1.09765625 -3.72265625 1.09765625 C-2.72265625 0.09765625 -2.72265625 0.09765625 0 0 Z " fill="#EDEDEF" transform="translate(308.72265625,220.90234375)"/>
<path d="M0 0 C3.92013443 2.80009602 5.50281188 5.50720809 7 10 C7.24291992 12.75488281 7.24291992 12.75488281 7.23046875 15.703125 C7.22853516 16.7653125 7.22660156 17.8275 7.22460938 18.921875 C7.20624023 20.56929687 7.20624023 20.56929687 7.1875 22.25 C7.18685547 23.36375 7.18621094 24.4775 7.18554688 25.625 C7.14035676 33.85964324 7.14035676 33.85964324 6 35 C4.14712498 35.07226502 2.29166122 35.0838122 0.4375 35.0625 C-0.57441406 35.05347656 -1.58632813 35.04445313 -2.62890625 35.03515625 C-3.80259766 35.01775391 -3.80259766 35.01775391 -5 35 C-5.02505615 34.37432129 -5.0501123 33.74864258 -5.07592773 33.10400391 C-5.19175273 30.27745381 -5.31453985 27.45124831 -5.4375 24.625 C-5.47681641 23.64015625 -5.51613281 22.6553125 -5.55664062 21.640625 C-5.59853516 20.69960937 -5.64042969 19.75859375 -5.68359375 18.7890625 C-5.72025146 17.91975098 -5.75690918 17.05043945 -5.79467773 16.15478516 C-5.87401544 13.9516738 -5.87401544 13.9516738 -7 12 C-9.32156597 11.59270772 -11.6568787 11.25561323 -14 11 C-14.95168683 13.85506049 -15.1900946 15.90937282 -15.31640625 18.88671875 C-15.35830078 19.82451172 -15.40019531 20.76230469 -15.44335938 21.72851562 C-15.48267578 22.70498047 -15.52199219 23.68144531 -15.5625 24.6875 C-15.60568359 25.67556641 -15.64886719 26.66363281 -15.69335938 27.68164062 C-15.79941542 30.12092972 -15.90020974 32.56044654 -16 35 C-19.96 35 -23.92 35 -28 35 C-28 23.78 -28 12.56 -28 1 C-24.04 1 -20.08 1 -16 1 C-16 1.66 -16 2.32 -16 3 C-15.401875 2.505 -14.80375 2.01 -14.1875 1.5 C-9.49099926 -0.710118 -5.10240098 -0.82098783 0 0 Z " fill="#E6E5E8" transform="translate(413,221)"/>
<path d="M0 0 C4.86581831 0.31134121 8.09965484 2.91921264 11.8125 5.8125 C12.7087207 6.47088867 12.7087207 6.47088867 13.62304688 7.14257812 C15.33203125 8.45703125 15.33203125 8.45703125 18 11 C18 12.32 18 13.64 18 15 C15.48046875 17.10546875 15.48046875 17.10546875 12.1875 19.1875 C11.10855469 19.88230469 10.02960938 20.57710937 8.91796875 21.29296875 C6 23 6 23 3 24 C3.05220703 25.04800781 3.05220703 25.04800781 3.10546875 26.1171875 C3.13253906 27.02726562 3.15960938 27.93734375 3.1875 28.875 C3.23970703 30.23238281 3.23970703 30.23238281 3.29296875 31.6171875 C3.19628906 32.40351563 3.09960938 33.18984375 3 34 C2.01 34.66 1.02 35.32 0 36 C-2.29332975 34.37730453 -4.58470136 32.75196361 -6.875 31.125 C-7.52597656 30.66480469 -8.17695313 30.20460937 -8.84765625 29.73046875 C-9.47285156 29.28574219 -10.09804688 28.84101563 -10.7421875 28.3828125 C-11.3182373 27.97434082 -11.89428711 27.56586914 -12.48779297 27.14501953 C-14 26 -14 26 -16 24 C-15.9296875 21.57421875 -15.9296875 21.57421875 -15 19 C-12.8203125 17.26953125 -12.8203125 17.26953125 -10.125 15.8125 C-9.24070312 15.32394531 -8.35640625 14.83539063 -7.4453125 14.33203125 C-6.63835937 13.89246094 -5.83140625 13.45289063 -5 13 C-1.78734527 11.36744646 -1.78734527 11.36744646 -1.5234375 8.65234375 C-1.47445313 7.75644531 -1.42546875 6.86054688 -1.375 5.9375 C-1.08244275 1.08244275 -1.08244275 1.08244275 0 0 Z " fill="#F16E19" transform="translate(288,166)"/>
<path d="M0 0 C0.90105469 0.01804688 1.80210937 0.03609375 2.73046875 0.0546875 C3.41753906 0.07789063 4.10460937 0.10109375 4.8125 0.125 C5.98629972 3.64639916 5.94203037 6.44915726 5.9453125 10.1640625 C5.94626923 10.84552338 5.94722595 11.52698425 5.94821167 12.22909546 C5.94889115 13.66640312 5.94705304 15.10371388 5.94287109 16.54101562 C5.937503 18.74876728 5.9428323 20.95631703 5.94921875 23.1640625 C5.94855825 24.55989628 5.94727767 25.95572994 5.9453125 27.3515625 C5.94418457 28.62596191 5.94305664 29.90036133 5.94189453 31.21337891 C5.8125 34.125 5.8125 34.125 4.8125 35.125 C2.79285801 35.19744053 0.77082876 35.20877188 -1.25 35.1875 C-2.90708984 35.17396484 -2.90708984 35.17396484 -4.59765625 35.16015625 C-5.45230469 35.14855469 -6.30695313 35.13695312 -7.1875 35.125 C-7.40433204 30.4625415 -7.60123087 25.79983309 -7.77954102 21.13574219 C-7.84304626 19.54859829 -7.91203429 17.96166404 -7.98657227 16.375 C-8.09265652 14.09668053 -8.17912167 11.8183391 -8.26171875 9.5390625 C-8.29907639 8.82755035 -8.33643402 8.11603821 -8.37492371 7.38296509 C-8.4362793 5.38134766 -8.4362793 5.38134766 -8.1875 2.125 C-4.87379 -0.08414 -3.8428979 -0.09981553 0 0 Z " fill="#E8E8EC" transform="translate(375.1875,220.875)"/>
<path d="M0 0 C1.19583104 3.58749311 1.01782444 6.292557 0.87890625 10.07421875 C0.85529526 10.7580513 0.83168427 11.44188385 0.80735779 12.1464386 C0.7308855 14.32701226 0.64679119 16.50721595 0.5625 18.6875 C0.50926281 20.1672997 0.45652252 21.64711738 0.40429688 23.12695312 C0.27529303 26.75152817 0.13945273 30.37581023 0 34 C-3.96 34 -7.92 34 -12 34 C-13.47905238 31.04189524 -13.12190903 28.0452845 -13.09765625 24.8046875 C-13.0962413 24.09724396 -13.09482635 23.38980042 -13.09336853 22.66091919 C-13.087766 20.39890331 -13.07521318 18.13698602 -13.0625 15.875 C-13.05748532 14.34244935 -13.05292236 12.80989714 -13.04882812 11.27734375 C-13.03779577 7.51819112 -13.02052952 3.75911228 -13 0 C-8.32171192 -0.75097371 -4.65068238 -1.0208815 0 0 Z " fill="#F1F0F3" transform="translate(285,222)"/>
<path d="M0 0 C1.37478516 0.01740234 1.37478516 0.01740234 2.77734375 0.03515625 C3.69644531 0.04417969 4.61554688 0.05320313 5.5625 0.0625 C6.27277344 0.07410156 6.98304688 0.08570313 7.71484375 0.09765625 C7.83859375 0.73703125 7.96234375 1.37640625 8.08984375 2.03515625 C8.29609375 2.71578125 8.50234375 3.39640625 8.71484375 4.09765625 C9.37484375 4.42765625 10.03484375 4.75765625 10.71484375 5.09765625 C10.05484375 5.09765625 9.39484375 5.09765625 8.71484375 5.09765625 C8.71484375 6.08765625 8.71484375 7.07765625 8.71484375 8.09765625 C9.70484375 8.42765625 10.69484375 8.75765625 11.71484375 9.09765625 C10.72484375 10.58265625 10.72484375 10.58265625 9.71484375 12.09765625 C9.34908321 14.41688899 9.34908321 14.41688899 9.30078125 16.984375 C9.24277344 18.39106445 9.24277344 18.39106445 9.18359375 19.82617188 C9.15265625 20.80263672 9.12171875 21.77910156 9.08984375 22.78515625 C9.03183594 24.26725586 9.03183594 24.26725586 8.97265625 25.77929688 C8.87838976 28.21844235 8.79552785 30.65802372 8.71484375 33.09765625 C4.75484375 33.09765625 0.79484375 33.09765625 -3.28515625 33.09765625 C-3.30981017 28.5586792 -3.32799414 24.01974082 -3.34008789 19.48071289 C-3.34512765 17.93545859 -3.35195945 16.39020909 -3.3605957 14.8449707 C-3.37267701 12.62840596 -3.37838798 10.41190407 -3.3828125 8.1953125 C-3.38797379 7.50051285 -3.39313507 6.8057132 -3.39845276 6.08985901 C-3.39864902 4.42536295 -3.34704754 2.76100126 -3.28515625 1.09765625 C-2.28515625 0.09765625 -2.28515625 0.09765625 0 0 Z " fill="#ECEBED" transform="translate(388.28515625,222.90234375)"/>
<path d="M0 0 C4.86581831 0.31134121 8.09965484 2.91921264 11.8125 5.8125 C12.7087207 6.47088867 12.7087207 6.47088867 13.62304688 7.14257812 C15.33203125 8.45703125 15.33203125 8.45703125 18 11 C18 12.32 18 13.64 18 15 C15.48046875 17.10546875 15.48046875 17.10546875 12.1875 19.1875 C11.10855469 19.88230469 10.02960938 20.57710937 8.91796875 21.29296875 C6 23 6 23 3 24 C3.03480469 24.69867188 3.06960938 25.39734375 3.10546875 26.1171875 C3.13253906 27.02726562 3.15960938 27.93734375 3.1875 28.875 C3.22230469 29.77992188 3.25710938 30.68484375 3.29296875 31.6171875 C3.19628906 32.40351563 3.09960938 33.18984375 3 34 C2.01 34.66 1.02 35.32 0 36 C-0.99 35.01 -1.98 34.02 -3 33 C-1.68 33 -0.36 33 1 33 C1 29.7 1 26.4 1 23 C2.32 22.67 3.64 22.34 5 22 C5.33 21.01 5.66 20.02 6 19 C6.99 19 7.98 19 9 19 C9 18.34 9 17.68 9 17 C10.65 16.34 12.3 15.68 14 15 C13.34 12.69 12.68 10.38 12 8 C11.01 8 10.02 8 9 8 C7.66666667 6.66666667 6.33333333 5.33333333 5 4 C2.92910402 3.35299858 2.92910402 3.35299858 1 3 C0.97873047 3.88751953 0.97873047 3.88751953 0.95703125 4.79296875 C0.69098714 9.20067252 0.38017311 11.48625256 -2.3125 15.125 C-5 17 -5 17 -7.16796875 16.6171875 C-7.77253906 16.41351563 -8.37710937 16.20984375 -9 16 C-7.865625 15.38125 -6.73125 14.7625 -5.5625 14.125 C-3.02416099 12.3578666 -2.13158621 11.50901012 -1.34765625 8.4765625 C-1.20184846 6.6910566 -1.10740557 4.90044042 -1.0703125 3.109375 C-1 1 -1 1 0 0 Z " fill="#B15D3C" transform="translate(288,166)"/>
<path d="M0 0 C0 0.99 0 1.98 0 3 C0.99 3.33 1.98 3.66 3 4 C3 4.66 3 5.32 3 6 C2.34 6 1.68 6 1 6 C0.67 9.96 0.34 13.92 0 18 C-0.66 17.67 -1.32 17.34 -2 17 C-2 16.34 -2 15.68 -2 15 C-3.32 15 -4.64 15 -6 15 C-7.5 13 -7.5 13 -9 11 C-10.32 11 -11.64 11 -13 11 C-13.6875 9.25 -13.6875 9.25 -14 7 C-13 4.875 -13 4.875 -11 3 C-7.4375 1.8125 -7.4375 1.8125 -4 1 C-2 0 -2 0 0 0 Z " fill="#F56D11" transform="translate(288,180)"/>
<path d="M0 0 C1.5625 1.75 1.5625 1.75 2 4 C1.79677533 6.7774038 1.33818682 8.48382011 -0.1875 10.8125 C-2.90062649 12.59006563 -4.82709196 12.38851935 -8 12 C-10.375 10.9375 -10.375 10.9375 -12 9 C-12.52238806 3.04477612 -12.52238806 3.04477612 -11 0 C-7.10803211 -1.29732263 -3.94264617 -1.09612361 0 0 Z " fill="#E2E0E6" transform="translate(284,208)"/>
<path d="M0 0 C2 2 2 2 2.375 5.4375 C2 9 2 9 0.5 11 C-3.37523693 12.55009477 -5.93181156 11.9186232 -10 11 C-12.1642235 7.75366476 -12.37569856 6.75698557 -12 3 C-8.65327926 -2.02008111 -5.49294068 -1.09858814 0 0 Z " fill="#ECECF1" transform="translate(379,208)"/>
<path d="M0 0 C1.65 0 3.3 0 5 0 C5 0.99 5 1.98 5 3 C5.66 3.33 6.32 3.66 7 4 C6.34 4 5.68 4 5 4 C5 5.32 5 6.64 5 8 C3.1875 8.6875 3.1875 8.6875 1 9 C-0.75 7.5625 -0.75 7.5625 -2 6 C-1.34 4.02 -0.68 2.04 0 0 Z " fill="#FBFBF9" transform="translate(247,222)"/>
<path d="M0 0 C0 2.33333333 0 4.66666667 0 7 C1.65 6.67 3.3 6.34 5 6 C6.65 8.97 8.3 11.94 10 15 C6.6325319 13.31626595 4.16415809 11.68918436 1.25 9.375 C0.45078125 8.74335938 -0.3484375 8.11171875 -1.171875 7.4609375 C-2.07679688 6.73777344 -2.07679688 6.73777344 -3 6 C-2.625 3.5625 -2.625 3.5625 -2 1 C-1.34 0.67 -0.68 0.34 0 0 Z " fill="#C36E3D" transform="translate(275,184)"/>
<path d="M0 0 C1.79244141 0.01740234 1.79244141 0.01740234 3.62109375 0.03515625 C5.41740234 0.04869141 5.41740234 0.04869141 7.25 0.0625 C8.17683594 0.07410156 9.10367187 0.08570313 10.05859375 0.09765625 C10.05859375 0.42765625 10.05859375 0.75765625 10.05859375 1.09765625 C8.41890625 1.49984375 8.41890625 1.49984375 6.74609375 1.91015625 C3.27167369 3.02903729 2.36407053 3.56163179 0.05859375 6.09765625 C-0.93140625 6.09765625 -1.92140625 6.09765625 -2.94140625 6.09765625 C-3.32359392 4.44150968 -3.65535727 2.77308601 -3.94140625 1.09765625 C-2.94140625 0.09765625 -2.94140625 0.09765625 0 0 Z " fill="#D7D5DD" transform="translate(291.94140625,221.90234375)"/>
<path d="M0 0 C0.99 0 1.98 0 3 0 C0.65050547 11.97669162 0.65050547 11.97669162 -2.4375 15.3125 C-5 17 -5 17 -7.16015625 16.60546875 C-7.76730469 16.40566406 -8.37445313 16.20585937 -9 16 C-7.865625 15.38125 -6.73125 14.7625 -5.5625 14.125 C-3.02416099 12.3578666 -2.13158621 11.50901012 -1.34765625 8.4765625 C-1.20184846 6.6910566 -1.10740557 4.90044042 -1.0703125 3.109375 C-1 1 -1 1 0 0 Z " fill="#B86A4F" transform="translate(288,166)"/>
<path d="M0 0 C-0.72316406 0.47179687 -0.72316406 0.47179687 -1.4609375 0.953125 C-6.25371352 4.09388748 -6.25371352 4.09388748 -9 9 C-9.66 9 -10.32 9 -11 9 C-11.6875 7.25 -11.6875 7.25 -12 5 C-10.38492316 1.56796172 -9.03941284 1.01452052 -5.4375 -0.3125 C-2 -1 -2 -1 0 0 Z " fill="#E4712F" transform="translate(286,182)"/>
<path d="M0 0 C1.32 0.33 2.64 0.66 4 1 C3.01 1.33 2.02 1.66 1 2 C0.67 2.66 0.34 3.32 0 4 C-0.99 4.33 -1.98 4.66 -3 5 C-3.33 8.3 -3.66 11.6 -4 15 C-5.65 14.67 -7.3 14.34 -9 14 C-9.33 13.01 -9.66 12.02 -10 11 C-8.66666667 11 -7.33333333 11 -6 11 C-5.34 8.03 -4.68 5.06 -4 2 C-3.01 2.33 -2.02 2.66 -1 3 C-0.67 2.01 -0.34 1.02 0 0 Z " fill="#E87428" transform="translate(293,184)"/>
<path d="M0 0 C-0.99 0.66 -1.98 1.32 -3 2 C-3.99 3.485 -3.99 3.485 -5 5 C-6.30518475 6.03647024 -7.63461347 7.04422943 -9 8 C-9.20086443 4.28400809 -9.1519437 3.22791555 -7 0 C-3.86650268 -1.04449911 -3.01031744 -0.93423645 0 0 Z " fill="#D5D2DF" transform="translate(376,208)"/>
<path d="M0 0 C0.556875 0.7115625 0.556875 0.7115625 1.125 1.4375 C3.62646962 3.52205802 5.81593418 3.64621491 9 4 C9 4.33 9 4.66 9 5 C6.36 5 3.72 5 1 5 C1 5.66 1 6.32 1 7 C0.34 7 -0.32 7 -1 7 C-0.67 4.69 -0.34 2.38 0 0 Z " fill="#CECED5" transform="translate(205,242)"/>
<path d="M0 0 C1.485 0.99 1.485 0.99 3 2 C3.1875 5.625 3.1875 5.625 3 9 C2.01 9.33 1.02 9.66 0 10 C0.20625 9.2575 0.4125 8.515 0.625 7.75 C1.04408751 4.67669159 0.61949011 3.57213134 -1 1 C-0.67 0.67 -0.34 0.34 0 0 Z " fill="#DDDAE4" transform="translate(378,208)"/>
<path d="M0 0 C0.33 0 0.66 0 1 0 C1.08096803 1.45742463 1.13917774 2.91612807 1.1875 4.375 C1.22230469 5.18710938 1.25710938 5.99921875 1.29296875 6.8359375 C1.19628906 7.55007812 1.09960938 8.26421875 1 9 C0.01 9.66 -0.98 10.32 -2 11 C-2.99 10.01 -3.98 9.02 -5 8 C-3.68 7.67 -2.36 7.34 -1 7 C-0.67 4.69 -0.34 2.38 0 0 Z " fill="#823E3A" transform="translate(290,191)"/>
<path d="M0 0 C0.99 0 1.98 0 3 0 C4.4606285 2.64738916 5 3.89448334 5 7 C4.01 7.33 3.02 7.66 2 8 C2.33 6.35 2.66 4.7 3 3 C1.68 2.67 0.36 2.34 -1 2 C-0.67 1.34 -0.34 0.68 0 0 Z " fill="#ED6D20" transform="translate(297,174)"/>
<path d="M0 0 C2.5 1.375 2.5 1.375 5 3 C5 3.66 5 4.32 5 5 C2.69 5 0.38 5 -2 5 C-1.34 4.67 -0.68 4.34 0 4 C0 2.68 0 1.36 0 0 Z " fill="#FCFBFE" transform="translate(330,263)"/>
<path d="M0 0 C0 0.99 0 1.98 0 3 C0.31421071 5.00309329 0.6451046 7.00371336 1 9 C-0.32 8.01 -1.64 7.02 -3 6 C-2.625 3.5625 -2.625 3.5625 -2 1 C-1.34 0.67 -0.68 0.34 0 0 Z " fill="#9E5B47" transform="translate(275,184)"/>
<path d="M0 0 C2.9375 0.375 2.9375 0.375 6 1 C6.33 1.66 6.66 2.32 7 3 C4.69 3 2.38 3 0 3 C0 2.01 0 1.02 0 0 Z " fill="#E37032" transform="translate(289,169)"/>
</svg>
